<svg width="900" height="600" viewBox="0 0 900 600" fill="none" xmlns="http://www.w3.org/2000/svg">
<g clip-path="url(#clip0_34_2)">
<path d="M900 0H0V600H900V0Z" fill="#38CFB3"/>
<path d="M0 131L113 117L225 141L338 166L450 113L563 116L675 121L788 160L900 96V601H788H675H563H450H338H225H113H0V131Z" fill="#6AFFA4"/>
<path d="M0 164L113 204L225 180L338 183L450 172L563 161L675 200L788 214L900 160V601H788H675H563H450H338H225H113H0V164Z" fill="#00E1B2"/>
<path d="M0 268L113 258L225 274L338 258L450 274L563 214L675 264L788 255L900 276V601H788H675H563H450H338H225H113H0V268Z" fill="#00C1B5"/>
<path d="M0 328L113 322L225 277L338 319L450 280L563 312L675 337L788 303L900 307V601H788H675H563H450H338H225H113H0V328Z" fill="#00A0AB"/>
<path d="M0 384L113 377L225 351L338 361L450 359L563 353L675 349L788 346L900 375V601H788H675H563H450H338H225H113H0V384Z" fill="#108095"/>
<path d="M0 394L113 396H225L338 401L450 412L563 410L675 421L788 393L900 443V601H788H675H563H450H338H225H113H0V394Z" fill="#216178"/>
<path d="M0 458L113 496L225 488L338 467L450 455L563 459L675 457L788 477L900 491V601H788H675H563H450H338H225H113H0V458Z" fill="#254358"/>
<path d="M0 514L113 528L225 551L338 547L450 545L563 526L675 520L788 548L900 532V601H788H675H563H450H338H225H113H0V514Z" fill="#1F2937"/>
</g>
<defs>
<clipPath id="clip0_34_2">
<rect width="900" height="600" fill="white"/>
</clipPath>
</defs>
</svg>
