<svg width="512" height="512" viewBox="0 0 512 512" fill="none" xmlns="http://www.w3.org/2000/svg">
<g clip-path="url(#clip0_34_16)">
<rect y="-10" width="512" height="522" fill="#26222E"/>
<path d="M197.549 368.25C196.216 368.25 195.049 367.75 194.049 366.75C193.049 365.75 192.549 364.5 192.549 363V339.25C182.882 338.417 174.299 335.25 166.799 329.75C159.465 324.25 153.715 317 149.549 308C145.382 299 143.299 288.75 143.299 277.25C143.299 266.25 145.299 256.333 149.299 247.5C153.465 238.667 159.215 231.5 166.549 226C174.049 220.333 182.715 216.917 192.549 215.75V190.75C192.549 189.25 193.049 188 194.049 187C195.049 186 196.216 185.5 197.549 185.5C198.882 185.5 200.049 186 201.049 187C202.049 188 202.549 189.25 202.549 190.75V215.5C208.882 215.833 215.215 217.167 221.549 219.5C228.049 221.833 233.466 225 237.799 229C239.466 230.333 240.132 231.917 239.799 233.75C239.465 235.583 238.382 236.833 236.549 237.5C234.882 238 232.799 237.333 230.299 235.5C225.966 232 221.132 229.417 215.799 227.75C210.466 226.083 204.965 225.25 199.299 225.25C185.632 225.25 174.632 230 166.299 239.5C158.132 249 154.049 261.667 154.049 277.5C154.049 293.667 158.049 306.417 166.049 315.75C174.215 325.083 185.215 329.75 199.049 329.75C204.882 329.75 210.466 328.917 215.799 327.25C221.132 325.583 226.049 323.083 230.549 319.75C233.382 317.583 235.549 316.917 237.049 317.75C238.716 318.417 239.632 319.667 239.799 321.5C240.132 323.333 239.466 324.833 237.799 326C233.299 330 227.882 333.25 221.549 335.75C215.215 338.083 208.882 339.417 202.549 339.75V363C202.549 366.5 200.882 368.25 197.549 368.25ZM276.951 346.25C275.618 346.25 274.451 345.833 273.451 345C272.451 344.333 271.951 343.417 271.951 342.25C271.951 341.083 272.451 340.083 273.451 339.25C274.451 338.417 275.618 338 276.951 338H384.951C386.285 338 387.451 338.417 388.451 339.25C389.451 340.083 389.951 341.083 389.951 342.25C389.951 343.417 389.451 344.333 388.451 345C387.451 345.833 386.285 346.25 384.951 346.25H276.951Z" fill="url(#paint0_linear_34_16)"/>
</g>
<defs>
<linearGradient id="paint0_linear_34_16" x1="0" y1="0" x2="608.38" y2="172.931" gradientUnits="userSpaceOnUse">
<stop stop-color="#FF00C7"/>
<stop offset="1" stop-color="#FF8A00"/>
</linearGradient>
<clipPath id="clip0_34_16">
<rect width="512" height="512" rx="70" fill="white"/>
</clipPath>
</defs>
</svg>
