<svg width="1280" height="640" viewBox="0 0 1280 640" fill="none" xmlns="http://www.w3.org/2000/svg">
<rect width="1280" height="630" fill="#001220"/>
<path d="M316.778 427.25C315.445 427.25 314.278 426.75 313.278 425.75C312.278 424.75 311.778 423.5 311.778 422V395L314.278 398.5C304.112 398 295.112 395.083 287.278 389.75C279.612 384.25 273.528 376.917 269.028 367.75C264.695 358.417 262.528 347.917 262.528 336.25C262.528 327.75 263.695 319.917 266.028 312.75C268.528 305.417 272.028 299 276.528 293.5C281.195 288 286.695 283.667 293.028 280.5C299.362 277.167 306.362 275.167 314.028 274.5L311.778 280V249.75C311.778 248.25 312.278 247 313.278 246C314.278 245 315.445 244.5 316.778 244.5C318.112 244.5 319.278 245 320.278 246C321.278 247 321.778 248.25 321.778 249.75V280L319.528 274.5C326.195 274.5 332.945 275.667 339.778 278C346.612 280.333 352.362 283.667 357.028 288C358.028 288.833 358.612 289.833 358.778 291C359.112 292 359.028 293 358.528 294C358.195 294.833 357.612 295.5 356.778 296C355.945 296.5 354.862 296.667 353.528 296.5C352.362 296.333 351.028 295.667 349.528 294.5C345.195 291 340.362 288.417 335.028 286.75C329.695 285.083 324.195 284.25 318.528 284.25C311.695 284.25 305.445 285.5 299.778 288C294.278 290.5 289.528 294.083 285.528 298.75C281.528 303.25 278.445 308.75 276.278 315.25C274.278 321.583 273.278 328.667 273.278 336.5C273.278 352.667 277.278 365.417 285.278 374.75C293.445 384.083 304.445 388.75 318.278 388.75C324.112 388.75 329.695 387.917 335.028 386.25C340.362 384.583 345.278 382.083 349.778 378.75C351.445 377.583 352.862 376.917 354.028 376.75C355.362 376.583 356.445 376.75 357.278 377.25C358.112 377.75 358.612 378.5 358.778 379.5C359.112 380.5 359.112 381.5 358.778 382.5C358.612 383.5 358.028 384.333 357.028 385C352.195 389.333 346.278 392.75 339.278 395.25C332.445 397.583 325.695 398.75 319.028 398.75L321.778 395V422C321.778 423.5 321.278 424.75 320.278 425.75C319.445 426.75 318.278 427.25 316.778 427.25ZM414.181 398.5C412.514 398.5 411.181 398 410.181 397C409.347 396 408.931 394.667 408.931 393V224.75C408.931 222.917 409.347 221.583 410.181 220.75C411.181 219.75 412.514 219.25 414.181 219.25C415.847 219.25 417.097 219.75 417.931 220.75C418.931 221.583 419.431 222.917 419.431 224.75V305.5H416.431C419.764 295 425.514 287.167 433.681 282C441.847 276.667 451.264 274 461.931 274C471.597 274 479.597 275.75 485.931 279.25C492.431 282.583 497.264 287.667 500.431 294.5C503.597 301.333 505.181 309.833 505.181 320V393C505.181 394.667 504.681 396 503.681 397C502.847 398 501.597 398.5 499.931 398.5C498.264 398.5 496.931 398 495.931 397C495.097 396 494.681 394.667 494.681 393V321C494.681 308.167 492.097 298.75 486.931 292.75C481.764 286.75 473.431 283.75 461.931 283.75C449.097 283.75 438.764 287.75 430.931 295.75C423.264 303.583 419.431 314.167 419.431 327.5V393C419.431 396.667 417.681 398.5 414.181 398.5ZM593.114 399C582.114 399 572.531 396.417 564.364 391.25C556.364 386.083 550.114 378.833 545.614 369.5C541.281 360.167 539.114 349.167 539.114 336.5C539.114 327 540.364 318.417 542.864 310.75C545.364 303.083 548.948 296.5 553.614 291C558.448 285.5 564.198 281.333 570.864 278.5C577.531 275.5 584.948 274 593.114 274C604.114 274 613.614 276.583 621.614 281.75C629.781 286.917 636.031 294.167 640.364 303.5C644.864 312.833 647.114 323.833 647.114 336.5C647.114 346 645.864 354.583 643.364 362.25C640.864 369.917 637.198 376.5 632.364 382C627.698 387.5 622.031 391.75 615.364 394.75C608.864 397.583 601.448 399 593.114 399ZM593.114 389.25C601.948 389.25 609.614 387.167 616.114 383C622.614 378.833 627.614 372.833 631.114 365C634.614 357 636.364 347.5 636.364 336.5C636.364 319.833 632.448 306.917 624.614 297.75C616.948 288.417 606.448 283.75 593.114 283.75C584.281 283.75 576.614 285.833 570.114 290C563.614 294.167 558.614 300.167 555.114 308C551.614 315.833 549.864 325.333 549.864 336.5C549.864 353.167 553.781 366.167 561.614 375.5C569.448 384.667 579.948 389.25 593.114 389.25ZM719.386 399C711.719 399 704.302 397.917 697.136 395.75C689.969 393.583 682.969 389.917 676.136 384.75C675.302 384.083 674.719 383.25 674.386 382.25C674.219 381.25 674.219 380.25 674.386 379.25C674.719 378.25 675.219 377.417 675.886 376.75C676.719 375.917 677.636 375.5 678.636 375.5C679.802 375.5 680.969 375.917 682.136 376.75C688.469 381.417 694.802 384.667 701.136 386.5C707.469 388.333 713.802 389.25 720.136 389.25C730.969 389.25 739.219 387.167 744.886 383C750.719 378.833 753.636 373.167 753.636 366C753.636 360.333 751.719 355.917 747.886 352.75C744.219 349.417 738.219 346.75 729.886 344.75L709.136 339.75C698.636 337.25 690.886 333.417 685.886 328.25C681.052 323.083 678.636 316.417 678.636 308.25C678.636 301.417 680.386 295.417 683.886 290.25C687.552 285.083 692.636 281.083 699.136 278.25C705.802 275.417 713.469 274 722.136 274C729.469 274 736.469 275.167 743.136 277.5C749.969 279.833 755.719 283.333 760.386 288C761.386 289 761.969 290.083 762.136 291.25C762.469 292.25 762.469 293.25 762.136 294.25C761.802 295.25 761.219 296 760.386 296.5C759.552 297 758.552 297.25 757.386 297.25C756.386 297.083 755.302 296.5 754.136 295.5C749.469 291.5 744.386 288.583 738.886 286.75C733.386 284.75 727.719 283.75 721.886 283.75C711.719 283.75 703.802 286 698.136 290.5C692.469 294.833 689.636 300.667 689.636 308C689.636 313.667 691.386 318.25 694.886 321.75C698.386 325.25 703.969 327.917 711.636 329.75L732.386 334.75C743.219 337.417 751.302 341.167 756.636 346C761.969 350.833 764.636 357.333 764.636 365.5C764.636 375.667 760.552 383.833 752.386 390C744.219 396 733.219 399 719.386 399ZM805.538 398.5C803.871 398.5 802.538 398 801.538 397C800.705 396 800.288 394.667 800.288 393V224.75C800.288 222.917 800.705 221.583 801.538 220.75C802.538 219.75 803.871 219.25 805.538 219.25C807.205 219.25 808.455 219.75 809.288 220.75C810.288 221.583 810.788 222.917 810.788 224.75V305.5H807.788C811.121 295 816.871 287.167 825.038 282C833.205 276.667 842.621 274 853.288 274C862.955 274 870.955 275.75 877.288 279.25C883.788 282.583 888.621 287.667 891.788 294.5C894.955 301.333 896.538 309.833 896.538 320V393C896.538 394.667 896.038 396 895.038 397C894.205 398 892.955 398.5 891.288 398.5C889.621 398.5 888.288 398 887.288 397C886.455 396 886.038 394.667 886.038 393V321C886.038 308.167 883.455 298.75 878.288 292.75C873.121 286.75 864.788 283.75 853.288 283.75C840.455 283.75 830.121 287.75 822.288 295.75C814.621 303.583 810.788 314.167 810.788 327.5V393C810.788 396.667 809.038 398.5 805.538 398.5ZM925.722 405.25C924.388 405.25 923.222 404.833 922.222 404C921.222 403.333 920.722 402.417 920.722 401.25C920.722 400.083 921.222 399.083 922.222 398.25C923.222 397.417 924.388 397 925.722 397H1033.72C1035.06 397 1036.22 397.417 1037.22 398.25C1038.22 399.083 1038.72 400.083 1038.72 401.25C1038.72 402.417 1038.22 403.333 1037.22 404C1036.22 404.833 1035.06 405.25 1033.72 405.25H925.722Z" fill="url(#paint0_linear_254_2)"/>
<defs>
<linearGradient id="paint0_linear_254_2" x1="0" y1="0" x2="1232.7" y2="711.907" gradientUnits="userSpaceOnUse">
<stop stop-color="#FF00C7"/>
<stop offset="1" stop-color="#FF8A00"/>
</linearGradient>
</defs>
</svg>
