<svg width="640" height="640" viewBox="0 0 640 640" fill="none" xmlns="http://www.w3.org/2000/svg">
<path d="M0 0H640V640H0V0Z" fill="#001220"/>
<path d="M191.043 191.091C186.134 191.091 181.906 189.932 178.361 187.614C174.815 185.295 172.088 182.102 170.179 178.034C168.27 173.966 167.315 169.318 167.315 164.091C167.315 158.773 168.293 154.08 170.247 150.011C172.224 145.92 174.974 142.727 178.497 140.432C182.043 138.114 186.179 136.955 190.906 136.955C194.588 136.955 197.906 137.636 200.861 139C203.815 140.364 206.236 142.273 208.122 144.727C210.009 147.182 211.179 150.045 211.634 153.318H203.588C202.974 150.932 201.611 148.818 199.497 146.977C197.406 145.114 194.588 144.182 191.043 144.182C187.906 144.182 185.156 145 182.793 146.636C180.452 148.25 178.622 150.534 177.304 153.489C176.009 156.42 175.361 159.864 175.361 163.818C175.361 167.864 175.997 171.386 177.27 174.386C178.565 177.386 180.384 179.716 182.724 181.375C185.088 183.034 187.861 183.864 191.043 183.864C193.134 183.864 195.031 183.5 196.736 182.773C198.44 182.045 199.884 181 201.065 179.636C202.247 178.273 203.088 176.636 203.588 174.727H211.634C211.179 177.818 210.054 180.602 208.259 183.08C206.486 185.534 204.134 187.489 201.202 188.943C198.293 190.375 194.906 191.091 191.043 191.091ZM231.44 158.5V190H223.395V120.182H231.44V145.818H232.122C233.349 143.114 235.19 140.966 237.645 139.375C240.122 137.761 243.418 136.955 247.531 136.955C251.099 136.955 254.224 137.67 256.906 139.102C259.588 140.511 261.668 142.682 263.145 145.614C264.645 148.523 265.395 152.227 265.395 156.727V190H257.349V157.273C257.349 153.114 256.27 149.898 254.111 147.625C251.974 145.33 249.009 144.182 245.213 144.182C242.577 144.182 240.213 144.739 238.122 145.852C236.054 146.966 234.418 148.591 233.213 150.727C232.031 152.864 231.44 155.455 231.44 158.5ZM280.114 190V137.636H287.886V145.545H288.432C289.386 142.955 291.114 140.852 293.614 139.239C296.114 137.625 298.932 136.818 302.068 136.818C302.659 136.818 303.398 136.83 304.284 136.852C305.17 136.875 305.841 136.909 306.295 136.955V145.136C306.023 145.068 305.398 144.966 304.42 144.83C303.466 144.67 302.455 144.591 301.386 144.591C298.841 144.591 296.568 145.125 294.568 146.193C292.591 147.239 291.023 148.693 289.864 150.557C288.727 152.398 288.159 154.5 288.159 156.864V190H280.114ZM335.511 191.091C330.784 191.091 326.636 189.966 323.068 187.716C319.523 185.466 316.75 182.318 314.75 178.273C312.773 174.227 311.784 169.5 311.784 164.091C311.784 158.636 312.773 153.875 314.75 149.807C316.75 145.739 319.523 142.58 323.068 140.33C326.636 138.08 330.784 136.955 335.511 136.955C340.239 136.955 344.375 138.08 347.92 140.33C351.489 142.58 354.261 145.739 356.239 149.807C358.239 153.875 359.239 158.636 359.239 164.091C359.239 169.5 358.239 174.227 356.239 178.273C354.261 182.318 351.489 185.466 347.92 187.716C344.375 189.966 340.239 191.091 335.511 191.091ZM335.511 183.864C339.102 183.864 342.057 182.943 344.375 181.102C346.693 179.261 348.409 176.841 349.523 173.841C350.636 170.841 351.193 167.591 351.193 164.091C351.193 160.591 350.636 157.33 349.523 154.307C348.409 151.284 346.693 148.841 344.375 146.977C342.057 145.114 339.102 144.182 335.511 144.182C331.92 144.182 328.966 145.114 326.648 146.977C324.33 148.841 322.614 151.284 321.5 154.307C320.386 157.33 319.83 160.591 319.83 164.091C319.83 167.591 320.386 170.841 321.5 173.841C322.614 176.841 324.33 179.261 326.648 181.102C328.966 182.943 331.92 183.864 335.511 183.864ZM379.565 158.5V190H371.52V137.636H379.293V145.818H379.974C381.202 143.159 383.065 141.023 385.565 139.409C388.065 137.773 391.293 136.955 395.247 136.955C398.793 136.955 401.895 137.682 404.554 139.136C407.213 140.568 409.281 142.75 410.759 145.682C412.236 148.591 412.974 152.273 412.974 156.727V190H404.929V157.273C404.929 153.159 403.861 149.955 401.724 147.659C399.588 145.341 396.656 144.182 392.929 144.182C390.361 144.182 388.065 144.739 386.043 145.852C384.043 146.966 382.463 148.591 381.304 150.727C380.145 152.864 379.565 155.455 379.565 158.5ZM448.949 191.091C444.222 191.091 440.074 189.966 436.506 187.716C432.96 185.466 430.188 182.318 428.188 178.273C426.21 174.227 425.222 169.5 425.222 164.091C425.222 158.636 426.21 153.875 428.188 149.807C430.188 145.739 432.96 142.58 436.506 140.33C440.074 138.08 444.222 136.955 448.949 136.955C453.676 136.955 457.813 138.08 461.358 140.33C464.926 142.58 467.699 145.739 469.676 149.807C471.676 153.875 472.676 158.636 472.676 164.091C472.676 169.5 471.676 174.227 469.676 178.273C467.699 182.318 464.926 185.466 461.358 187.716C457.813 189.966 453.676 191.091 448.949 191.091ZM448.949 183.864C452.54 183.864 455.494 182.943 457.812 181.102C460.131 179.261 461.847 176.841 462.96 173.841C464.074 170.841 464.631 167.591 464.631 164.091C464.631 160.591 464.074 157.33 462.96 154.307C461.847 151.284 460.131 148.841 457.812 146.977C455.494 145.114 452.54 144.182 448.949 144.182C445.358 144.182 442.403 145.114 440.085 146.977C437.767 148.841 436.051 151.284 434.938 154.307C433.824 157.33 433.267 160.591 433.267 164.091C433.267 167.591 433.824 170.841 434.938 173.841C436.051 176.841 437.767 179.261 440.085 181.102C442.403 182.943 445.358 183.864 448.949 183.864Z" fill="white"/>
<path d="M320.499 357.091C320.499 376.267 317.037 392.839 310.112 406.807C303.188 420.775 293.688 431.546 281.614 439.122C269.541 446.698 255.75 450.486 240.244 450.486C224.737 450.486 210.947 446.698 198.873 439.122C186.799 431.546 177.3 420.775 170.375 406.807C163.45 392.839 159.988 376.267 159.988 357.091C159.988 337.915 163.45 321.343 170.375 307.375C177.3 293.407 186.799 282.635 198.873 275.06C210.947 267.484 224.737 263.696 240.244 263.696C255.75 263.696 269.541 267.484 281.614 275.06C293.688 282.635 303.188 293.407 310.112 307.375C317.037 321.343 320.499 337.915 320.499 357.091ZM299.193 357.091C299.193 341.348 296.559 328.06 291.291 317.229C286.083 306.398 279.01 298.201 270.073 292.638C261.195 287.074 251.252 284.293 240.244 284.293C229.235 284.293 219.262 287.074 210.325 292.638C201.448 298.201 194.375 306.398 189.107 317.229C183.899 328.06 181.295 341.348 181.295 357.091C181.295 372.834 183.899 386.121 189.107 396.952C194.375 407.783 201.448 415.981 210.325 421.544C219.262 427.107 229.235 429.889 240.244 429.889C251.252 429.889 261.195 427.107 270.073 421.544C279.01 415.981 286.083 407.783 291.291 396.952C296.559 386.121 299.193 372.834 299.193 357.091ZM456.952 311.636C455.886 302.64 451.566 295.656 443.99 290.685C436.414 285.713 427.122 283.227 416.114 283.227C408.064 283.227 401.021 284.529 394.984 287.134C389.007 289.738 384.331 293.318 380.957 297.876C377.643 302.433 375.986 307.612 375.986 313.412C375.986 318.265 377.14 322.438 379.448 325.93C381.816 329.362 384.834 332.233 388.504 334.541C392.173 336.79 396.02 338.655 400.045 340.134C404.069 341.555 407.769 342.709 411.142 343.597L429.608 348.568C434.343 349.811 439.61 351.527 445.411 353.717C451.27 355.907 456.863 358.896 462.19 362.684C467.576 366.413 472.015 371.207 475.506 377.066C478.998 382.925 480.744 390.116 480.744 398.639C480.744 408.464 478.17 417.342 473.021 425.273C467.931 433.204 460.473 439.507 450.649 444.183C440.883 448.858 429.016 451.196 415.048 451.196C402.028 451.196 390.753 449.095 381.224 444.893C371.754 440.691 364.297 434.831 358.852 427.315C353.466 419.798 350.418 411.068 349.707 401.125H372.435C373.027 407.991 375.335 413.672 379.359 418.17C383.443 422.609 388.592 425.924 394.807 428.114C401.081 430.244 407.828 431.31 415.048 431.31C423.453 431.31 430.999 429.948 437.687 427.226C444.375 424.444 449.672 420.597 453.578 415.685C457.484 410.713 459.438 404.913 459.438 398.284C459.438 392.247 457.751 387.335 454.377 383.547C451.004 379.759 446.565 376.681 441.06 374.314C435.556 371.946 429.608 369.875 423.216 368.099L400.844 361.707C386.639 357.624 375.394 351.794 367.108 344.218C358.822 336.642 354.679 326.729 354.679 314.477C354.679 304.297 357.431 295.42 362.935 287.844C368.499 280.209 375.956 274.29 385.308 270.088C394.718 265.827 405.224 263.696 416.824 263.696C428.543 263.696 438.959 265.797 448.074 269.999C457.189 274.142 464.409 279.824 469.736 287.045C475.122 294.265 477.963 302.463 478.259 311.636H456.952Z" fill="white"/>
</svg>
