<svg width="640" height="640" viewBox="0 0 640 640" fill="none" xmlns="http://www.w3.org/2000/svg">
<path d="M0 0H640V640H0V0Z" fill="#001220"/>
<path d="M64.3978 393.1C62.7845 393.247 61.5378 392.88 60.6578 392C59.7778 390.973 59.3378 389.873 59.3378 388.7C59.3378 387.82 59.7045 387.013 60.4378 386.28C61.0245 385.4 62.0511 384.887 63.5178 384.74L70.7778 384.08C78.9911 383.347 85.3711 380.193 89.9178 374.62C94.4645 369.047 96.7378 361.713 96.7378 352.62V240.42C96.7378 238.807 97.1045 237.633 97.8378 236.9C98.7178 236.02 99.8911 235.58 101.358 235.58C102.824 235.58 103.924 236.02 104.658 236.9C105.538 237.633 105.978 238.807 105.978 240.42V353.06C105.978 360.833 104.658 367.58 102.018 373.3C99.3778 378.873 95.4911 383.273 90.3578 386.5C85.2245 389.727 78.9178 391.707 71.4378 392.44L64.3978 393.1ZM177.89 393.76C170.997 393.76 164.764 392.367 159.19 389.58C153.617 386.793 149.217 383.053 145.99 378.36C142.764 373.52 141.15 368.167 141.15 362.3C141.15 354.38 143.057 348.22 146.87 343.82C150.83 339.273 157.504 336.12 166.89 334.36C176.424 332.453 189.477 331.5 206.05 331.5H215.07V339.64H206.49C191.97 339.64 180.677 340.3 172.61 341.62C164.69 342.793 159.117 344.993 155.89 348.22C152.81 351.3 151.27 355.7 151.27 361.42C151.27 368.46 153.69 374.253 158.53 378.8C163.517 383.2 170.19 385.4 178.55 385.4C185.297 385.4 191.164 383.787 196.15 380.56C201.284 377.187 205.317 372.713 208.25 367.14C211.184 361.42 212.65 354.967 212.65 347.78V322.7C212.65 312.14 210.597 304.44 206.49 299.6C202.384 294.76 195.784 292.34 186.69 292.34C180.824 292.34 175.177 293.147 169.75 294.76C164.47 296.373 158.897 298.867 153.03 302.24C151.71 302.973 150.537 303.267 149.51 303.12C148.63 302.973 147.897 302.607 147.31 302.02C146.724 301.287 146.284 300.48 145.99 299.6C145.844 298.573 145.917 297.62 146.21 296.74C146.65 295.86 147.384 295.127 148.41 294.54C154.424 290.873 160.657 288.16 167.11 286.4C173.564 284.64 179.944 283.76 186.25 283.76C194.317 283.76 200.99 285.153 206.27 287.94C211.55 290.727 215.437 294.98 217.93 300.7C220.57 306.42 221.89 313.753 221.89 322.7V388.48C221.89 389.947 221.524 391.12 220.79 392C220.057 392.88 218.957 393.32 217.49 393.32C216.024 393.32 214.85 392.88 213.97 392C213.237 391.12 212.87 389.947 212.87 388.48V365.38H215.29C213.824 371.247 211.33 376.307 207.81 380.56C204.29 384.813 199.964 388.113 194.83 390.46C189.844 392.66 184.197 393.76 177.89 393.76ZM306.078 393.76C295.811 393.76 287.085 391.12 279.898 385.84C272.858 380.413 268.091 373.227 265.598 364.28H268.018V388.48C268.018 389.947 267.578 391.12 266.698 392C265.965 392.88 264.865 393.32 263.398 393.32C261.931 393.32 260.758 392.88 259.878 392C259.145 391.12 258.778 389.947 258.778 388.48V240.42C258.778 238.807 259.145 237.633 259.878 236.9C260.758 236.02 261.931 235.58 263.398 235.58C264.865 235.58 265.965 236.02 266.698 236.9C267.578 237.633 268.018 238.807 268.018 240.42V313.24H265.598C268.091 304.147 272.858 296.96 279.898 291.68C287.085 286.4 295.811 283.76 306.078 283.76C315.758 283.76 324.118 286.033 331.158 290.58C338.345 294.98 343.845 301.287 347.658 309.5C351.471 317.713 353.378 327.467 353.378 338.76C353.378 349.907 351.398 359.66 347.438 368.02C343.625 376.233 338.198 382.613 331.158 387.16C324.118 391.56 315.758 393.76 306.078 393.76ZM305.858 385.18C313.631 385.18 320.378 383.347 326.098 379.68C331.818 376.013 336.218 370.733 339.298 363.84C342.378 356.8 343.918 348.44 343.918 338.76C343.918 324.093 340.471 312.727 333.578 304.66C326.831 296.447 317.591 292.34 305.858 292.34C298.085 292.34 291.338 294.173 285.618 297.84C279.898 301.507 275.498 306.787 272.418 313.68C269.338 320.573 267.798 328.933 267.798 338.76C267.798 353.427 271.245 364.867 278.138 373.08C285.031 381.147 294.271 385.18 305.858 385.18ZM417.037 393.76C410.291 393.76 403.764 392.807 397.457 390.9C391.151 388.993 384.991 385.767 378.977 381.22C378.244 380.633 377.731 379.9 377.437 379.02C377.291 378.14 377.291 377.26 377.437 376.38C377.731 375.5 378.171 374.767 378.757 374.18C379.491 373.447 380.297 373.08 381.177 373.08C382.204 373.08 383.231 373.447 384.257 374.18C389.831 378.287 395.404 381.147 400.977 382.76C406.551 384.373 412.124 385.18 417.697 385.18C427.231 385.18 434.491 383.347 439.477 379.68C444.611 376.013 447.177 371.027 447.177 364.72C447.177 359.733 445.491 355.847 442.117 353.06C438.891 350.127 433.611 347.78 426.277 346.02L408.017 341.62C398.777 339.42 391.957 336.047 387.557 331.5C383.304 326.953 381.177 321.087 381.177 313.9C381.177 307.887 382.717 302.607 385.797 298.06C389.024 293.513 393.497 289.993 399.217 287.5C405.084 285.007 411.831 283.76 419.457 283.76C425.911 283.76 432.071 284.787 437.937 286.84C443.951 288.893 449.011 291.973 453.117 296.08C453.997 296.96 454.511 297.913 454.657 298.94C454.951 299.82 454.951 300.7 454.657 301.58C454.364 302.46 453.851 303.12 453.117 303.56C452.384 304 451.504 304.22 450.477 304.22C449.597 304.073 448.644 303.56 447.617 302.68C443.511 299.16 439.037 296.593 434.197 294.98C429.357 293.22 424.371 292.34 419.237 292.34C410.291 292.34 403.324 294.32 398.337 298.28C393.351 302.093 390.857 307.227 390.857 313.68C390.857 318.667 392.397 322.7 395.477 325.78C398.557 328.86 403.471 331.207 410.217 332.82L428.477 337.22C438.011 339.567 445.124 342.867 449.817 347.12C454.511 351.373 456.857 357.093 456.857 364.28C456.857 373.227 453.264 380.413 446.077 385.84C438.891 391.12 429.211 393.76 417.037 393.76ZM506.983 432.92C505.663 432.92 504.636 432.553 503.903 431.82C503.169 431.087 502.803 430.133 502.803 428.96C502.803 427.787 503.023 426.613 503.463 425.44L518.643 390.46V394.86L474.643 291.9C474.056 290.433 473.836 289.187 473.983 288.16C474.129 286.987 474.569 286.033 475.303 285.3C476.183 284.567 477.356 284.2 478.823 284.2C480.143 284.2 481.096 284.567 481.683 285.3C482.416 285.887 483.076 286.767 483.663 287.94L525.463 388.92H520.183L562.203 287.94C562.789 286.62 563.376 285.667 563.963 285.08C564.696 284.493 565.796 284.2 567.263 284.2C568.729 284.2 569.756 284.567 570.343 285.3C571.076 286.033 571.443 286.987 571.443 288.16C571.589 289.187 571.369 290.36 570.783 291.68L512.263 428.96C511.676 430.427 511.016 431.453 510.283 432.04C509.549 432.627 508.449 432.92 506.983 432.92Z" fill="url(#paint0_linear_255_5)"/>
<defs>
<linearGradient id="paint0_linear_255_5" x1="158.5" y1="212.5" x2="516" y2="419" gradientUnits="userSpaceOnUse">
<stop stop-color="#E34C67"/>
<stop offset="1" stop-color="#FF8A00"/>
</linearGradient>
</defs>
</svg>
