<svg width="1536" height="512" viewBox="0 0 1536 512" fill="none" xmlns="http://www.w3.org/2000/svg">
<path fill-rule="evenodd" clip-rule="evenodd" d="M332.922 144.677L191.174 388.313C189.371 391.412 186.159 393.181 182.822 393.281C179.498 394.152 175.813 393.285 173.208 390.68L47.8597 265.331C47.1715 264.918 46.5222 264.415 45.9289 263.822C43.9227 261.815 42.9471 259.169 43.0022 256.54C42.9472 253.911 43.9227 251.264 45.9289 249.258C46.5222 248.665 47.1714 248.162 47.8597 247.749L173.208 122.4C177.113 118.495 183.445 118.495 187.35 122.4C191.256 126.306 191.256 132.637 187.35 136.542L67.3528 256.54L179.471 368.658L321.829 123.973C324.39 119.57 329.796 117.852 334.365 119.789C336.037 120.22 337.62 121.091 338.929 122.4L464.278 247.749C464.966 248.162 465.615 248.665 466.208 249.258C468.214 251.264 469.19 253.91 469.135 256.539C469.19 259.168 468.215 261.815 466.208 263.822C465.615 264.415 464.966 264.918 464.278 265.331L338.929 390.68C335.024 394.585 328.692 394.585 324.787 390.68C320.882 386.774 320.882 380.443 324.787 376.537L444.784 256.54L332.922 144.677Z" fill="white"/>
<path d="M499.439 338C495.273 338 493.189 335.917 493.189 331.75V168C493.189 163.833 495.273 161.75 499.439 161.75H557.689C575.523 161.75 589.356 165.75 599.189 173.75C609.023 181.75 613.939 193.167 613.939 208C613.939 217.833 611.273 226.167 605.939 233C600.773 239.833 593.689 244.833 584.689 248C595.023 250.333 603.106 255.167 608.939 262.5C614.939 269.833 617.939 279.083 617.939 290.25C617.939 305.917 613.023 317.833 603.189 326C593.356 334 579.273 338 560.939 338H499.439ZM503.689 244H556.939C571.939 244 583.356 240.917 591.189 234.75C599.023 228.417 602.939 219.417 602.939 207.75C602.939 195.917 599.023 186.917 591.189 180.75C583.356 174.583 571.939 171.5 556.939 171.5H503.689V244ZM503.689 328.25H560.689C576.023 328.25 587.523 325.25 595.189 319.25C603.023 313.083 606.939 303.667 606.939 291C606.939 278.167 603.023 268.75 595.189 262.75C587.523 256.75 576.023 253.75 560.689 253.75H503.689V328.25ZM689.943 340C679.443 340 671.277 336.667 665.443 330C659.777 323.167 656.943 313.667 656.943 301.5V165.75C656.943 162.083 658.693 160.25 662.193 160.25C665.693 160.25 667.443 162.083 667.443 165.75V299.75C667.443 320.083 675.277 330.25 690.943 330.25C692.61 330.25 694.027 330.167 695.193 330C696.36 329.833 697.527 329.75 698.693 329.75C701.527 329.75 702.943 331 702.943 333.5C702.943 335.333 702.443 336.667 701.443 337.5C700.443 338.333 698.777 339 696.443 339.5C695.277 339.667 694.11 339.75 692.943 339.75C691.943 339.917 690.943 340 689.943 340ZM762.291 340C754.458 340 747.374 338.417 741.041 335.25C734.708 332.083 729.708 327.833 726.041 322.5C722.374 317 720.541 310.917 720.541 304.25C720.541 295.25 722.708 288.25 727.041 283.25C731.541 278.083 739.124 274.5 749.791 272.5C760.624 270.333 775.458 269.25 794.291 269.25H801.791V259.25C801.791 247.25 799.458 238.5 794.791 233C790.124 227.5 782.624 224.75 772.291 224.75C759.624 224.75 746.874 228.5 734.041 236C731.708 237.333 729.791 237.5 728.291 236.5C726.791 235.333 726.041 233.75 726.041 231.75C726.041 229.75 726.958 228.25 728.791 227.25C735.624 223.083 742.708 220 750.041 218C757.374 216 764.624 215 771.791 215C785.624 215 795.791 218.583 802.291 225.75C808.958 232.917 812.291 244.083 812.291 259.25V334C812.291 337.667 810.624 339.5 807.291 339.5C803.791 339.5 802.041 337.667 802.041 334V315.5C798.541 323.167 793.291 329.167 786.291 333.5C779.458 337.833 771.458 340 762.291 340ZM763.041 330.5C770.708 330.5 777.374 328.667 783.041 325C788.874 321.167 793.458 316.083 796.791 309.75C800.124 303.25 801.791 295.917 801.791 287.75V278.5H794.791C778.291 278.5 765.458 279.25 756.291 280.75C747.291 282.083 740.958 284.583 737.291 288.25C733.791 291.75 732.041 296.75 732.041 303.25C732.041 311.25 734.791 317.833 740.291 323C745.958 328 753.541 330.5 763.041 330.5ZM901.459 340C889.959 340 880.042 337.333 871.709 332C863.542 326.667 857.209 319.25 852.709 309.75C848.376 300.25 846.209 289.167 846.209 276.5C846.209 257.5 851.126 242.5 860.959 231.5C870.792 220.5 884.292 215 901.459 215C907.792 215 914.209 216.167 920.709 218.5C927.376 220.667 933.292 224.333 938.459 229.5C939.959 230.833 940.376 232.417 939.709 234.25C939.209 235.917 938.126 237.083 936.459 237.75C934.792 238.417 932.959 237.833 930.959 236C926.126 231.667 921.126 228.75 915.959 227.25C910.959 225.583 906.042 224.75 901.209 224.75C887.042 224.75 876.126 229.25 868.459 238.25C860.792 247.25 856.959 260.083 856.959 276.75C856.959 293.417 860.792 306.5 868.459 316C876.126 325.5 887.042 330.25 901.209 330.25C906.042 330.25 910.959 329.5 915.959 328C921.126 326.333 926.126 323.333 930.959 319C932.959 317.167 934.792 316.583 936.459 317.25C938.126 317.917 939.209 319.083 939.709 320.75C940.376 322.417 939.959 324 938.459 325.5C933.292 330.667 927.376 334.417 920.709 336.75C914.209 338.917 907.792 340 901.459 340ZM973.229 339.5C969.729 339.5 967.979 337.667 967.979 334V165.75C967.979 162.083 969.729 160.25 973.229 160.25C976.729 160.25 978.479 162.083 978.479 165.75V273H978.979L1039.23 219.25C1040.56 218.083 1041.81 217.167 1042.98 216.5C1044.15 215.833 1045.56 215.5 1047.23 215.5C1049.23 215.5 1050.56 216.333 1051.23 218C1052.06 219.667 1051.48 221.417 1049.48 223.25L990.479 275.75L1054.98 330.75C1057.31 332.75 1058.15 334.75 1057.48 336.75C1056.81 338.583 1055.56 339.5 1053.73 339.5C1052.23 339.5 1050.9 339.167 1049.73 338.5C1048.73 337.833 1047.31 336.75 1045.48 335.25L978.979 278.75H978.479V334C978.479 337.667 976.729 339.5 973.229 339.5ZM1093.92 338C1089.76 338 1087.67 335.917 1087.67 331.75V168C1087.67 163.833 1089.76 161.75 1093.92 161.75H1152.17C1170.01 161.75 1183.84 165.75 1193.67 173.75C1203.51 181.75 1208.42 193.167 1208.42 208C1208.42 217.833 1205.76 226.167 1200.42 233C1195.26 239.833 1188.17 244.833 1179.17 248C1189.51 250.333 1197.59 255.167 1203.42 262.5C1209.42 269.833 1212.42 279.083 1212.42 290.25C1212.42 305.917 1207.51 317.833 1197.67 326C1187.84 334 1173.76 338 1155.42 338H1093.92ZM1098.17 244H1151.42C1166.42 244 1177.84 240.917 1185.67 234.75C1193.51 228.417 1197.42 219.417 1197.42 207.75C1197.42 195.917 1193.51 186.917 1185.67 180.75C1177.84 174.583 1166.42 171.5 1151.42 171.5H1098.17V244ZM1098.17 328.25H1155.17C1170.51 328.25 1182.01 325.25 1189.67 319.25C1197.51 313.083 1201.42 303.667 1201.42 291C1201.42 278.167 1197.51 268.75 1189.67 262.75C1182.01 256.75 1170.51 253.75 1155.17 253.75H1098.17V328.25ZM1256.68 184C1250.84 184 1247.93 181.083 1247.93 175.25C1247.93 169.583 1250.84 166.75 1256.68 166.75C1262.51 166.75 1265.43 169.583 1265.43 175.25C1265.43 181.083 1262.51 184 1256.68 184ZM1256.68 338.75C1253.18 338.75 1251.43 336.917 1251.43 333.25V221.75C1251.43 218.083 1253.18 216.25 1256.68 216.25C1260.18 216.25 1261.93 218.083 1261.93 221.75V333.25C1261.93 336.917 1260.18 338.75 1256.68 338.75ZM1309.65 339.5C1306.15 339.5 1304.4 337.667 1304.4 334V221C1304.4 217.333 1306.15 215.5 1309.65 215.5C1312.99 215.5 1314.65 217.333 1314.65 221V239C1318.49 231 1324.15 224.917 1331.65 220.75C1339.15 216.583 1347.65 214.5 1357.15 214.5C1358.65 214.5 1359.9 214.833 1360.9 215.5C1362.07 216 1362.65 217.083 1362.65 218.75C1362.65 222.25 1360.82 224.083 1357.15 224.25L1354.15 224.5C1341.82 225.667 1332.15 229.833 1325.15 237C1318.32 244.167 1314.9 253.667 1314.9 265.5V334C1314.9 337.667 1313.15 339.5 1309.65 339.5ZM1430.72 340C1419.89 340 1410.39 337.5 1402.22 332.5C1394.22 327.333 1387.97 320.083 1383.47 310.75C1379.14 301.25 1376.97 290.167 1376.97 277.5C1376.97 258.333 1381.8 243.167 1391.47 232C1401.14 220.667 1414.22 215 1430.72 215C1440.89 215 1449.72 217.333 1457.22 222C1464.72 226.5 1470.3 232.75 1473.97 240.75V165.75C1473.97 162.083 1475.72 160.25 1479.22 160.25C1482.72 160.25 1484.47 162.083 1484.47 165.75V334C1484.47 337.667 1482.72 339.5 1479.22 339.5C1475.72 339.5 1473.97 337.667 1473.97 334V314.25C1470.3 322.25 1464.72 328.583 1457.22 333.25C1449.72 337.75 1440.89 340 1430.72 340ZM1430.97 330.25C1444.3 330.25 1454.8 325.667 1462.47 316.5C1470.3 307.167 1474.22 294.167 1474.22 277.5C1474.22 260.833 1470.3 247.917 1462.47 238.75C1454.8 229.417 1444.3 224.75 1430.97 224.75C1417.8 224.75 1407.3 229.417 1399.47 238.75C1391.64 247.917 1387.72 260.833 1387.72 277.5C1387.72 294.167 1391.64 307.167 1399.47 316.5C1407.3 325.667 1417.8 330.25 1430.97 330.25Z" fill="white"/>
</svg>
