<svg width="1792" height="512" viewBox="0 0 1792 512" fill="none" xmlns="http://www.w3.org/2000/svg">
<path fill-rule="evenodd" clip-rule="evenodd" d="M336.878 148.222C336.752 148.157 336.623 148.093 336.491 148.033C331.481 145.708 324.782 147.441 321.527 151.902L181.132 344.346L70.9038 256.439L188.66 162.529C192.978 159.085 192.978 153.502 188.66 150.059C184.342 146.615 177.341 146.615 173.023 150.059L49.2596 248.76C48.5408 249.114 47.8616 249.539 47.2384 250.036C45.0258 251.8 43.947 254.127 44.002 256.439C43.9471 258.751 45.0259 261.078 47.2384 262.842C47.8616 263.339 48.5407 263.764 49.2596 264.118L173.023 362.819C175.202 364.557 178.064 365.418 180.919 365.402C185.492 366.332 190.705 364.511 193.456 360.739L333.108 169.313L442.358 256.439L324.602 350.349C320.284 353.793 320.284 359.376 324.602 362.819C328.92 366.263 335.921 366.263 340.238 362.819L464.002 264.118C464.721 263.764 465.4 263.339 466.023 262.842C468.236 261.077 469.315 258.75 469.26 256.438C469.314 254.126 468.235 251.8 466.023 250.036C465.4 249.539 464.721 249.114 464.002 248.76L340.238 150.059C339.24 149.262 338.097 148.65 336.878 148.222Z" fill="white"/>
<path d="M626.439 338C622.273 338 620.189 335.917 620.189 331.75V168C620.189 163.833 622.273 161.75 626.439 161.75H684.689C702.523 161.75 716.356 165.75 726.189 173.75C736.023 181.75 740.939 193.167 740.939 208C740.939 217.833 738.273 226.167 732.939 233C727.773 239.833 720.689 244.833 711.689 248C722.023 250.333 730.106 255.167 735.939 262.5C741.939 269.833 744.939 279.083 744.939 290.25C744.939 305.917 740.023 317.833 730.189 326C720.356 334 706.273 338 687.939 338H626.439ZM630.689 244H683.939C698.939 244 710.356 240.917 718.189 234.75C726.023 228.417 729.939 219.417 729.939 207.75C729.939 195.917 726.023 186.917 718.189 180.75C710.356 174.583 698.939 171.5 683.939 171.5H630.689V244ZM630.689 328.25H687.689C703.023 328.25 714.523 325.25 722.189 319.25C730.023 313.083 733.939 303.667 733.939 291C733.939 278.167 730.023 268.75 722.189 262.75C714.523 256.75 703.023 253.75 687.689 253.75H630.689V328.25ZM816.943 340C806.443 340 798.277 336.667 792.443 330C786.777 323.167 783.943 313.667 783.943 301.5V165.75C783.943 162.083 785.693 160.25 789.193 160.25C792.693 160.25 794.443 162.083 794.443 165.75V299.75C794.443 320.083 802.277 330.25 817.943 330.25C819.61 330.25 821.027 330.167 822.193 330C823.36 329.833 824.527 329.75 825.693 329.75C828.527 329.75 829.943 331 829.943 333.5C829.943 335.333 829.443 336.667 828.443 337.5C827.443 338.333 825.777 339 823.443 339.5C822.277 339.667 821.11 339.75 819.943 339.75C818.943 339.917 817.943 340 816.943 340ZM889.291 340C881.458 340 874.374 338.417 868.041 335.25C861.708 332.083 856.708 327.833 853.041 322.5C849.374 317 847.541 310.917 847.541 304.25C847.541 295.25 849.708 288.25 854.041 283.25C858.541 278.083 866.124 274.5 876.791 272.5C887.624 270.333 902.458 269.25 921.291 269.25H928.791V259.25C928.791 247.25 926.458 238.5 921.791 233C917.124 227.5 909.624 224.75 899.291 224.75C886.624 224.75 873.874 228.5 861.041 236C858.708 237.333 856.791 237.5 855.291 236.5C853.791 235.333 853.041 233.75 853.041 231.75C853.041 229.75 853.958 228.25 855.791 227.25C862.624 223.083 869.708 220 877.041 218C884.374 216 891.624 215 898.791 215C912.624 215 922.791 218.583 929.291 225.75C935.958 232.917 939.291 244.083 939.291 259.25V334C939.291 337.667 937.624 339.5 934.291 339.5C930.791 339.5 929.041 337.667 929.041 334V315.5C925.541 323.167 920.291 329.167 913.291 333.5C906.458 337.833 898.458 340 889.291 340ZM890.041 330.5C897.708 330.5 904.374 328.667 910.041 325C915.874 321.167 920.458 316.083 923.791 309.75C927.124 303.25 928.791 295.917 928.791 287.75V278.5H921.791C905.291 278.5 892.458 279.25 883.291 280.75C874.291 282.083 867.958 284.583 864.291 288.25C860.791 291.75 859.041 296.75 859.041 303.25C859.041 311.25 861.791 317.833 867.291 323C872.958 328 880.541 330.5 890.041 330.5ZM1028.46 340C1016.96 340 1007.04 337.333 998.709 332C990.542 326.667 984.209 319.25 979.709 309.75C975.376 300.25 973.209 289.167 973.209 276.5C973.209 257.5 978.126 242.5 987.959 231.5C997.792 220.5 1011.29 215 1028.46 215C1034.79 215 1041.21 216.167 1047.71 218.5C1054.38 220.667 1060.29 224.333 1065.46 229.5C1066.96 230.833 1067.38 232.417 1066.71 234.25C1066.21 235.917 1065.13 237.083 1063.46 237.75C1061.79 238.417 1059.96 237.833 1057.96 236C1053.13 231.667 1048.13 228.75 1042.96 227.25C1037.96 225.583 1033.04 224.75 1028.21 224.75C1014.04 224.75 1003.13 229.25 995.459 238.25C987.792 247.25 983.959 260.083 983.959 276.75C983.959 293.417 987.792 306.5 995.459 316C1003.13 325.5 1014.04 330.25 1028.21 330.25C1033.04 330.25 1037.96 329.5 1042.96 328C1048.13 326.333 1053.13 323.333 1057.96 319C1059.96 317.167 1061.79 316.583 1063.46 317.25C1065.13 317.917 1066.21 319.083 1066.71 320.75C1067.38 322.417 1066.96 324 1065.46 325.5C1060.29 330.667 1054.38 334.417 1047.71 336.75C1041.21 338.917 1034.79 340 1028.46 340ZM1100.23 339.5C1096.73 339.5 1094.98 337.667 1094.98 334V165.75C1094.98 162.083 1096.73 160.25 1100.23 160.25C1103.73 160.25 1105.48 162.083 1105.48 165.75V273H1105.98L1166.23 219.25C1167.56 218.083 1168.81 217.167 1169.98 216.5C1171.15 215.833 1172.56 215.5 1174.23 215.5C1176.23 215.5 1177.56 216.333 1178.23 218C1179.06 219.667 1178.48 221.417 1176.48 223.25L1117.48 275.75L1181.98 330.75C1184.31 332.75 1185.15 334.75 1184.48 336.75C1183.81 338.583 1182.56 339.5 1180.73 339.5C1179.23 339.5 1177.9 339.167 1176.73 338.5C1175.73 337.833 1174.31 336.75 1172.48 335.25L1105.98 278.75H1105.48V334C1105.48 337.667 1103.73 339.5 1100.23 339.5ZM1220.92 338C1216.76 338 1214.67 335.917 1214.67 331.75V168C1214.67 163.833 1216.76 161.75 1220.92 161.75H1279.17C1297.01 161.75 1310.84 165.75 1320.67 173.75C1330.51 181.75 1335.42 193.167 1335.42 208C1335.42 217.833 1332.76 226.167 1327.42 233C1322.26 239.833 1315.17 244.833 1306.17 248C1316.51 250.333 1324.59 255.167 1330.42 262.5C1336.42 269.833 1339.42 279.083 1339.42 290.25C1339.42 305.917 1334.51 317.833 1324.67 326C1314.84 334 1300.76 338 1282.42 338H1220.92ZM1225.17 244H1278.42C1293.42 244 1304.84 240.917 1312.67 234.75C1320.51 228.417 1324.42 219.417 1324.42 207.75C1324.42 195.917 1320.51 186.917 1312.67 180.75C1304.84 174.583 1293.42 171.5 1278.42 171.5H1225.17V244ZM1225.17 328.25H1282.17C1297.51 328.25 1309.01 325.25 1316.67 319.25C1324.51 313.083 1328.42 303.667 1328.42 291C1328.42 278.167 1324.51 268.75 1316.67 262.75C1309.01 256.75 1297.51 253.75 1282.17 253.75H1225.17V328.25ZM1383.68 184C1377.84 184 1374.93 181.083 1374.93 175.25C1374.93 169.583 1377.84 166.75 1383.68 166.75C1389.51 166.75 1392.43 169.583 1392.43 175.25C1392.43 181.083 1389.51 184 1383.68 184ZM1383.68 338.75C1380.18 338.75 1378.43 336.917 1378.43 333.25V221.75C1378.43 218.083 1380.18 216.25 1383.68 216.25C1387.18 216.25 1388.93 218.083 1388.93 221.75V333.25C1388.93 336.917 1387.18 338.75 1383.68 338.75ZM1436.65 339.5C1433.15 339.5 1431.4 337.667 1431.4 334V221C1431.4 217.333 1433.15 215.5 1436.65 215.5C1439.99 215.5 1441.65 217.333 1441.65 221V239C1445.49 231 1451.15 224.917 1458.65 220.75C1466.15 216.583 1474.65 214.5 1484.15 214.5C1485.65 214.5 1486.9 214.833 1487.9 215.5C1489.07 216 1489.65 217.083 1489.65 218.75C1489.65 222.25 1487.82 224.083 1484.15 224.25L1481.15 224.5C1468.82 225.667 1459.15 229.833 1452.15 237C1445.32 244.167 1441.9 253.667 1441.9 265.5V334C1441.9 337.667 1440.15 339.5 1436.65 339.5ZM1557.72 340C1546.89 340 1537.39 337.5 1529.22 332.5C1521.22 327.333 1514.97 320.083 1510.47 310.75C1506.14 301.25 1503.97 290.167 1503.97 277.5C1503.97 258.333 1508.8 243.167 1518.47 232C1528.14 220.667 1541.22 215 1557.72 215C1567.89 215 1576.72 217.333 1584.22 222C1591.72 226.5 1597.3 232.75 1600.97 240.75V165.75C1600.97 162.083 1602.72 160.25 1606.22 160.25C1609.72 160.25 1611.47 162.083 1611.47 165.75V334C1611.47 337.667 1609.72 339.5 1606.22 339.5C1602.72 339.5 1600.97 337.667 1600.97 334V314.25C1597.3 322.25 1591.72 328.583 1584.22 333.25C1576.72 337.75 1567.89 340 1557.72 340ZM1557.97 330.25C1571.3 330.25 1581.8 325.667 1589.47 316.5C1597.3 307.167 1601.22 294.167 1601.22 277.5C1601.22 260.833 1597.3 247.917 1589.47 238.75C1581.8 229.417 1571.3 224.75 1557.97 224.75C1544.8 224.75 1534.3 229.417 1526.47 238.75C1518.64 247.917 1514.72 260.833 1514.72 277.5C1514.72 294.167 1518.64 307.167 1526.47 316.5C1534.3 325.667 1544.8 330.25 1557.97 330.25Z" fill="white"/>
</svg>
