<svg width="512" height="512" viewBox="0 0 512 512" fill="none" xmlns="http://www.w3.org/2000/svg">
<g clip-path="url(#clip0_30_3)">
<rect y="-10" width="512" height="522" fill="#26222E"/>
<path d="M105.08 339.5C101.747 339.5 100.08 337.667 100.08 334V165.75C100.08 162.083 101.58 160.25 104.58 160.25C106.08 160.25 107.247 160.583 108.08 161.25C108.913 161.917 109.663 162.917 110.33 164.25L181.33 299.5L251.83 164.25C252.663 162.917 253.413 161.917 254.08 161.25C254.913 160.583 256.08 160.25 257.58 160.25C260.58 160.25 262.08 162.083 262.08 165.75V334C262.08 337.667 260.497 339.5 257.33 339.5C253.997 339.5 252.33 337.667 252.33 334V183.25L187.08 308C186.413 309.333 185.663 310.333 184.83 311C184.163 311.667 183.08 312 181.58 312C179.08 312 177.163 310.667 175.83 308L109.83 183.25V334C109.83 337.667 108.247 339.5 105.08 339.5ZM364.018 340C338.518 340 317.851 333.583 302.018 320.75C300.018 319.083 299.101 317.25 299.268 315.25C299.601 313.25 300.601 311.833 302.268 311C304.101 310 306.018 310.333 308.018 312C315.851 318.167 324.101 322.667 332.768 325.5C341.601 328.333 352.018 329.75 364.018 329.75C380.684 329.75 393.184 326.417 401.518 319.75C410.018 313.083 414.268 304.25 414.268 293.25C414.268 284.25 411.184 277.25 405.018 272.25C398.851 267.083 388.768 263.083 374.768 260.25L350.018 255.25C334.351 252.083 322.684 246.833 315.018 239.5C307.351 232.167 303.518 222.25 303.518 209.75C303.518 199.75 306.018 191 311.018 183.5C316.184 176 323.268 170.167 332.268 166C341.434 161.833 351.851 159.75 363.518 159.75C374.518 159.75 384.601 161.417 393.768 164.75C402.934 167.917 411.268 172.917 418.768 179.75C420.768 181.417 421.601 183.333 421.268 185.5C420.934 187.5 419.934 188.917 418.268 189.75C416.601 190.583 414.768 190.083 412.768 188.25C405.601 181.917 398.018 177.333 390.018 174.5C382.018 171.5 373.184 170 363.518 170C348.851 170 337.018 173.667 328.018 181C319.018 188.167 314.518 197.75 314.518 209.75C314.518 219.417 317.351 227.083 323.018 232.75C328.684 238.25 337.851 242.25 350.518 244.75L375.268 249.75C392.268 253.25 404.851 258.417 413.018 265.25C421.184 271.917 425.268 281.167 425.268 293C425.268 302.167 422.768 310.333 417.768 317.5C412.934 324.5 405.934 330 396.768 334C387.601 338 376.684 340 364.018 340Z" fill="url(#paint0_linear_30_3)"/>
</g>
<defs>
<linearGradient id="paint0_linear_30_3" x1="0" y1="0" x2="608.38" y2="172.931" gradientUnits="userSpaceOnUse">
<stop stop-color="#FF00C7"/>
<stop offset="1" stop-color="#FF8A00"/>
</linearGradient>
<clipPath id="clip0_30_3">
<rect width="512" height="512" rx="70" fill="white"/>
</clipPath>
</defs>
</svg>
