<svg width="1280" height="640" viewBox="0 0 1280 640" fill="none" xmlns="http://www.w3.org/2000/svg">
<rect width="1280" height="640" fill="white"/>
<g clip-path="url(#clip0_246_2)">
<path d="M1280 0H0V640H1280V0Z" fill="#001220"/>
<path d="M0 426L30.5 423.7C61 421.3 122 416.7 183 422.3C244 428 305 444 366 445.2C427 446.3 488 432.7 548.8 428.3C609.7 424 670.3 429 731.2 428.8C792 428.7 853 423.3 914 420.7C975 418 1036 418 1097 413.3C1158 408.7 1219 399.3 1249.5 394.7L1280 390V641H1249.5C1219 641 1158 641 1097 641C1036 641 975 641 914 641C853 641 792 641 731.2 641C670.3 641 609.7 641 548.8 641C488 641 427 641 366 641C305 641 244 641 183 641C122 641 61 641 30.5 641H0V426Z" fill="#FA7268"/>
<path d="M0 459L30.5 453.5C61 448 122 437 183 439.5C244 442 305 458 366 465.7C427 473.3 488 472.7 548.8 472.3C609.7 472 670.3 472 731.2 466C792 460 853 448 914 448.7C975 449.3 1036 462.7 1097 470.3C1158 478 1219 480 1249.5 481L1280 482V641H1249.5C1219 641 1158 641 1097 641C1036 641 975 641 914 641C853 641 792 641 731.2 641C670.3 641 609.7 641 548.8 641C488 641 427 641 366 641C305 641 244 641 183 641C122 641 61 641 30.5 641H0V459Z" fill="#EF5F67"/>
<path d="M0 474L30.5 480.3C61 486.7 122 499.3 183 498.3C244 497.3 305 482.7 366 481C427 479.3 488 490.7 548.8 493.2C609.7 495.7 670.3 489.3 731.2 494.3C792 499.3 853 515.7 914 520.3C975 525 1036 518 1097 509.5C1158 501 1219 491 1249.5 486L1280 481V641H1249.5C1219 641 1158 641 1097 641C1036 641 975 641 914 641C853 641 792 641 731.2 641C670.3 641 609.7 641 548.8 641C488 641 427 641 366 641C305 641 244 641 183 641C122 641 61 641 30.5 641H0V474Z" fill="#E34C67"/>
<path d="M0 526L30.5 533.3C61 540.7 122 555.3 183 561.2C244 567 305 564 366 556C427 548 488 535 548.8 532C609.7 529 670.3 536 731.2 544.2C792 552.3 853 561.7 914 563.7C975 565.7 1036 560.3 1097 553C1158 545.7 1219 536.3 1249.5 531.7L1280 527V641H1249.5C1219 641 1158 641 1097 641C1036 641 975 641 914 641C853 641 792 641 731.2 641C670.3 641 609.7 641 548.8 641C488 641 427 641 366 641C305 641 244 641 183 641C122 641 61 641 30.5 641H0V526Z" fill="#D53867"/>
<path d="M0 566L30.5 570C61 574 122 582 183 587.7C244 593.3 305 596.7 366 594.8C427 593 488 586 548.8 579.3C609.7 572.7 670.3 566.3 731.2 566.2C792 566 853 572 914 577.5C975 583 1036 588 1097 592.8C1158 597.7 1219 602.3 1249.5 604.7L1280 607V641H1249.5C1219 641 1158 641 1097 641C1036 641 975 641 914 641C853 641 792 641 731.2 641C670.3 641 609.7 641 548.8 641C488 641 427 641 366 641C305 641 244 641 183 641C122 641 61 641 30.5 641H0V566Z" fill="#C62368"/>
</g>
<path d="M385.308 368C383.431 364.843 381.255 361.301 378.78 357.376C376.391 353.451 373.788 349.397 370.972 345.216C368.156 340.949 365.212 336.64 362.14 332.288C359.153 327.936 356.167 323.755 353.18 319.744C350.193 315.648 347.292 311.808 344.476 308.224C341.66 304.64 339.057 301.483 336.668 298.752V368H324.508V279.296H334.364C338.375 283.563 342.641 288.555 347.164 294.272C351.772 299.904 356.295 305.749 360.732 311.808C365.255 317.781 369.479 323.669 373.404 329.472C377.415 335.275 380.785 340.437 383.516 344.96V279.296H395.676V368H385.308ZM413.153 334.848C413.153 328.96 414.006 323.84 415.713 319.488C417.42 315.051 419.681 311.381 422.497 308.48C425.313 305.579 428.556 303.403 432.225 301.952C435.894 300.501 439.649 299.776 443.489 299.776C452.449 299.776 459.318 302.592 464.097 308.224C468.876 313.771 471.265 322.261 471.265 333.696C471.265 334.208 471.265 334.891 471.265 335.744C471.265 336.512 471.222 337.237 471.137 337.92H425.569C426.081 344.832 428.086 350.08 431.585 353.664C435.084 357.248 440.545 359.04 447.969 359.04C452.15 359.04 455.649 358.699 458.465 358.016C461.366 357.248 463.542 356.523 464.993 355.84L466.657 365.824C465.206 366.592 462.646 367.403 458.977 368.256C455.393 369.109 451.297 369.536 446.689 369.536C440.886 369.536 435.852 368.683 431.585 366.976C427.404 365.184 423.948 362.752 421.217 359.68C418.486 356.608 416.438 352.981 415.073 348.8C413.793 344.533 413.153 339.883 413.153 334.848ZM458.849 328.32C458.934 322.944 457.569 318.549 454.753 315.136C452.022 311.637 448.225 309.888 443.361 309.888C440.63 309.888 438.198 310.443 436.065 311.552C434.017 312.576 432.268 313.941 430.817 315.648C429.366 317.355 428.214 319.317 427.361 321.536C426.593 323.755 426.081 326.016 425.825 328.32H458.849ZM499.501 301.44H524.717V311.424H499.501V342.144C499.501 345.472 499.757 348.245 500.269 350.464C500.781 352.597 501.549 354.304 502.573 355.584C503.597 356.779 504.877 357.632 506.413 358.144C507.949 358.656 509.741 358.912 511.789 358.912C515.373 358.912 518.232 358.528 520.365 357.76C522.584 356.907 524.12 356.309 524.973 355.968L527.277 365.824C526.082 366.421 523.992 367.147 521.005 368C518.018 368.939 514.605 369.408 510.765 369.408C506.242 369.408 502.488 368.853 499.501 367.744C496.6 366.549 494.253 364.8 492.461 362.496C490.669 360.192 489.389 357.376 488.621 354.048C487.938 350.635 487.597 346.709 487.597 342.272V282.88L499.501 280.832V301.44ZM593.881 368C592.601 365.44 591.065 362.624 589.273 359.552C587.481 356.395 585.518 353.152 583.385 349.824C581.252 346.411 579.033 343.04 576.729 339.712C574.425 336.299 572.206 333.099 570.073 330.112C567.94 333.099 565.721 336.299 563.417 339.712C561.113 343.04 558.894 346.411 556.761 349.824C554.713 353.152 552.75 356.395 550.873 359.552C549.081 362.624 547.545 365.44 546.265 368H532.569C536.409 360.491 540.846 352.853 545.881 345.088C551.001 337.323 556.42 329.344 562.137 321.152L533.721 279.296H548.057L569.945 312.32L591.577 279.296H605.785L577.881 320.64C583.684 328.917 589.145 336.981 594.265 344.832C599.385 352.683 603.908 360.405 607.833 368H593.881ZM666.823 334.848C666.823 327.083 664.903 321.109 661.063 316.928C657.223 312.747 652.103 310.656 645.703 310.656C642.119 310.656 639.303 310.784 637.255 311.04C635.292 311.296 633.714 311.595 632.519 311.936V353.92C633.97 355.115 636.06 356.267 638.791 357.376C641.522 358.485 644.508 359.04 647.751 359.04C651.164 359.04 654.066 358.443 656.455 357.248C658.93 355.968 660.935 354.261 662.471 352.128C664.007 349.909 665.116 347.349 665.799 344.448C666.482 341.461 666.823 338.261 666.823 334.848ZM679.239 334.848C679.239 339.883 678.556 344.533 677.191 348.8C675.911 353.067 673.991 356.736 671.431 359.808C668.871 362.88 665.714 365.269 661.959 366.976C658.29 368.683 654.066 369.536 649.287 369.536C645.447 369.536 642.034 369.024 639.047 368C636.146 366.976 633.97 365.995 632.519 365.056V391.68H620.615V303.488C623.431 302.805 626.93 302.08 631.111 301.312C635.378 300.459 640.284 300.032 645.831 300.032C650.951 300.032 655.559 300.843 659.655 302.464C663.751 304.085 667.25 306.389 670.151 309.376C673.052 312.363 675.271 316.032 676.807 320.384C678.428 324.651 679.239 329.472 679.239 334.848ZM715.958 369.28C708.619 369.109 703.414 367.531 700.342 364.544C697.27 361.557 695.734 356.907 695.734 350.592V270.72L707.638 268.672V348.672C707.638 350.635 707.809 352.256 708.15 353.536C708.491 354.816 709.046 355.84 709.814 356.608C710.582 357.376 711.606 357.973 712.886 358.4C714.166 358.741 715.745 359.04 717.622 359.296L715.958 369.28ZM789.742 334.72C789.742 340.011 788.974 344.789 787.438 349.056C785.902 353.323 783.726 356.992 780.91 360.064C778.179 363.136 774.894 365.525 771.054 367.232C767.214 368.853 763.033 369.664 758.51 369.664C753.987 369.664 749.806 368.853 745.966 367.232C742.126 365.525 738.798 363.136 735.982 360.064C733.251 356.992 731.118 353.323 729.582 349.056C728.046 344.789 727.278 340.011 727.278 334.72C727.278 329.515 728.046 324.779 729.582 320.512C731.118 316.16 733.251 312.448 735.982 309.376C738.798 306.304 742.126 303.957 745.966 302.336C749.806 300.629 753.987 299.776 758.51 299.776C763.033 299.776 767.214 300.629 771.054 302.336C774.894 303.957 778.179 306.304 780.91 309.376C783.726 312.448 785.902 316.16 787.438 320.512C788.974 324.779 789.742 329.515 789.742 334.72ZM777.326 334.72C777.326 327.211 775.619 321.28 772.206 316.928C768.878 312.491 764.313 310.272 758.51 310.272C752.707 310.272 748.099 312.491 744.686 316.928C741.358 321.28 739.694 327.211 739.694 334.72C739.694 342.229 741.358 348.203 744.686 352.64C748.099 356.992 752.707 359.168 758.51 359.168C764.313 359.168 768.878 356.992 772.206 352.64C775.619 348.203 777.326 342.229 777.326 334.72ZM831.066 300.032C832.09 300.032 833.242 300.117 834.522 300.288C835.887 300.373 837.21 300.544 838.49 300.8C839.77 300.971 840.922 301.184 841.946 301.44C843.055 301.611 843.866 301.781 844.378 301.952L842.33 312.32C841.391 311.979 839.813 311.595 837.594 311.168C835.461 310.656 832.687 310.4 829.274 310.4C827.055 310.4 824.837 310.656 822.618 311.168C820.485 311.595 819.077 311.893 818.394 312.064V368H806.49V304.256C809.306 303.232 812.805 302.293 816.986 301.44C821.167 300.501 825.861 300.032 831.066 300.032ZM852.153 334.848C852.153 328.96 853.006 323.84 854.713 319.488C856.42 315.051 858.681 311.381 861.497 308.48C864.313 305.579 867.556 303.403 871.225 301.952C874.894 300.501 878.649 299.776 882.489 299.776C891.449 299.776 898.318 302.592 903.097 308.224C907.876 313.771 910.265 322.261 910.265 333.696C910.265 334.208 910.265 334.891 910.265 335.744C910.265 336.512 910.222 337.237 910.137 337.92H864.569C865.081 344.832 867.086 350.08 870.585 353.664C874.084 357.248 879.545 359.04 886.969 359.04C891.15 359.04 894.649 358.699 897.465 358.016C900.366 357.248 902.542 356.523 903.993 355.84L905.657 365.824C904.206 366.592 901.646 367.403 897.977 368.256C894.393 369.109 890.297 369.536 885.689 369.536C879.886 369.536 874.852 368.683 870.585 366.976C866.404 365.184 862.948 362.752 860.217 359.68C857.486 356.608 855.438 352.981 854.073 348.8C852.793 344.533 852.153 339.883 852.153 334.848ZM897.849 328.32C897.934 322.944 896.569 318.549 893.753 315.136C891.022 311.637 887.225 309.888 882.361 309.888C879.63 309.888 877.198 310.443 875.065 311.552C873.017 312.576 871.268 313.941 869.817 315.648C868.366 317.355 867.214 319.317 866.361 321.536C865.593 323.755 865.081 326.016 864.825 328.32H897.849ZM951.941 300.032C952.965 300.032 954.117 300.117 955.397 300.288C956.762 300.373 958.085 300.544 959.365 300.8C960.645 300.971 961.797 301.184 962.821 301.44C963.93 301.611 964.741 301.781 965.253 301.952L963.205 312.32C962.266 311.979 960.688 311.595 958.469 311.168C956.336 310.656 953.562 310.4 950.149 310.4C947.93 310.4 945.712 310.656 943.493 311.168C941.36 311.595 939.952 311.893 939.269 312.064V368H927.365V304.256C930.181 303.232 933.68 302.293 937.861 301.44C942.042 300.501 946.736 300.032 951.941 300.032Z" fill="url(#paint0_linear_246_2)"/>
<defs>
<linearGradient id="paint0_linear_246_2" x1="640" y1="265" x2="640" y2="405.5" gradientUnits="userSpaceOnUse">
<stop stop-color="#FA7268"/>
<stop offset="1" stop-color="#C62368"/>
</linearGradient>
<clipPath id="clip0_246_2">
<rect width="1280" height="640" fill="white"/>
</clipPath>
</defs>
</svg>
