<svg width="1280" height="640" viewBox="0 0 1280 640" fill="none" xmlns="http://www.w3.org/2000/svg">
<path d="M0 0H1280V640H0V0Z" fill="#001220"/>
<path d="M343.125 160.236L355.576 164.387V172.688H343.125L351.426 185.139C345.404 198.973 323.268 205.891 285.02 205.891L255.967 210.041L251.816 222.492H255.967C247.666 242.186 231.064 330.728 206.162 488.117L218.613 542.072H214.463C208.278 542.072 202.744 528.238 197.861 500.568L202.012 459.064V454.914H197.861V463.215C189.561 463.215 185.41 465.982 185.41 471.516V475.666L193.711 542.072V546.223H185.41L168.809 533.771L164.658 537.922H160.508C149.44 513.996 143.906 493.244 143.906 475.666L148.057 479.816H152.207L143.906 450.764L156.357 446.613V425.861H148.057V421.711C156.357 421.711 160.508 418.944 160.508 413.41V409.26H152.207C152.207 387.124 156.357 376.057 164.658 376.057V322.102C169.053 318.195 174.587 289.143 181.26 234.943L152.207 239.094L94.1016 234.943V230.793L114.854 226.643V230.793L119.004 226.643H181.26V214.191L114.854 222.492L110.703 218.342H106.553L81.6504 222.492L69.1992 214.191L73.3496 193.439L69.1992 189.289C69.1992 175.454 85.8008 168.537 119.004 168.537L343.125 160.236ZM318.223 172.688V176.838H334.824V172.688H318.223ZM164.658 405.109L156.357 496.418H164.658L160.508 475.666V467.365L168.809 454.914H164.658L168.809 450.764V446.613L164.658 442.463V438.312L172.959 421.711L168.809 405.109H164.658ZM479.6 148.762C481.39 157.062 492.458 161.213 512.803 161.213L546.006 306.477H575.059V310.627L550.156 314.777V318.928C558.457 318.928 562.607 321.695 562.607 327.229H595.811V331.379C595.811 337.564 581.976 343.098 554.307 347.98L562.607 372.883L558.457 385.334L562.607 410.236L558.457 414.387H562.607L558.457 418.537L562.607 468.342V493.244L558.457 489.094H554.307L566.758 551.35H558.457C558.457 543.049 555.69 538.898 550.156 538.898V543.049L554.307 555.5H550.156L546.006 551.35H541.855C541.855 559.65 539.089 563.801 533.555 563.801L512.803 493.244H508.652V509.846H504.502L496.201 460.041L508.652 468.342V464.191C506.374 439.289 502.223 426.838 496.201 426.838L500.352 422.688V410.236H492.051V422.688H487.9V406.086L492.051 401.936H487.9L483.75 406.086V389.484H487.9L492.051 393.635H496.201L492.051 389.484V364.582L400.742 385.334V393.635L429.795 385.334L446.396 389.484L467.148 385.334V393.635C409.043 404.051 379.99 417.886 379.99 435.139C372.666 465.575 364.365 484.943 355.088 493.244V501.545H342.637L338.486 497.395H334.336V501.545L321.885 493.244L330.186 468.342H326.035C317.734 468.342 313.584 479.41 313.584 501.545L305.283 493.244L309.434 468.342L296.982 455.891L367.539 285.725H371.689C371.689 294.025 374.456 298.176 379.99 298.176L384.141 277.424L379.99 281.574H375.84V264.973L379.99 244.221L384.141 248.371H388.291L384.141 244.221V240.07L392.441 223.469H396.592L400.742 227.619H404.893V223.469C404.893 217.935 400.742 215.168 392.441 215.168L413.193 157.062H429.795L425.645 161.213V165.363C444.85 154.296 462.835 148.762 479.6 148.762ZM454.697 244.221L421.494 331.379H429.795C457.464 331.379 472.682 323.078 475.449 306.477L458.848 244.221H454.697ZM417.344 269.123L409.043 298.176L404.893 294.025H400.742L404.893 310.627H409.043L421.494 273.273V269.123H417.344ZM371.689 306.477L367.539 310.627V318.928H371.689L375.84 306.477H371.689ZM396.592 323.078L392.441 339.68H396.592L400.742 335.529V323.078H396.592ZM359.238 327.229L355.088 343.83H359.238L367.539 327.229H359.238ZM429.795 339.68V343.83H438.096C462.998 341.063 475.449 336.913 475.449 331.379H471.299L429.795 339.68ZM487.9 430.988H496.201V455.891H492.051L487.9 430.988ZM546.006 460.041V468.342L550.156 484.943H554.307V476.643L550.156 460.041H546.006ZM504.502 472.492V480.793L516.953 476.643V468.342L504.502 472.492ZM691.758 169.758L720.811 194.66C720.811 186.359 723.577 182.209 729.111 182.209H733.262L791.367 331.623V339.924H787.217L778.916 315.021H774.766V323.322L803.818 393.879H807.969C819.036 321.939 834.987 246.825 855.82 168.537L868.271 176.838L880.723 172.688L905.625 185.139V189.289C897.324 189.289 893.174 194.823 893.174 205.891H897.324L901.475 210.041H905.625L909.775 189.289H918.076V193.439L913.926 197.59L918.076 201.74V205.891C897.243 269.855 878.525 361.571 861.924 481.037H853.623L861.924 414.631C856.39 414.631 848.089 440.917 837.021 493.488C826.768 501.789 817.083 505.939 807.969 505.939V514.24H803.818C803.818 508.706 798.285 505.939 787.217 505.939V476.887C787.217 464.354 759.548 395.181 704.209 269.367H700.059C688.991 318.684 679.307 385.09 671.006 468.586L666.855 464.436C650.254 469.318 641.953 476.236 641.953 485.188H633.652C628.118 474.771 625.352 456.786 625.352 431.232H621.201V468.586H612.9L608.75 447.834C608.75 372.639 625.352 281.33 658.555 173.908L691.758 169.758ZM633.652 273.518V277.668L637.803 281.818L633.652 285.969V294.27H637.803L641.953 277.668L637.803 273.518H633.652ZM791.367 339.924C798.529 339.924 804.062 350.992 807.969 373.127V377.277H803.818L791.367 339.924ZM1162.22 154.621L1166.37 158.771V162.922L1162.22 167.072L1158.07 162.922H1153.92L1116.56 187.824H1112.41C1112.41 180.5 1129.01 169.432 1162.22 154.621ZM1000.35 162.922L1004.5 200.275C1010.04 200.275 1014.19 191.975 1016.95 175.373H1021.1L1025.25 191.975L1012.8 258.381L1058.46 225.178H1062.61L1012.8 270.832V274.982L1108.26 204.426L1112.41 208.576C1149.68 178.14 1174.59 162.922 1187.12 162.922H1191.27L1195.42 179.523L1162.22 212.727H1166.37C1171.9 201.659 1180.2 196.125 1191.27 196.125L1195.42 200.275V196.125L1191.27 191.975L1195.42 187.824H1207.87L1212.02 200.275C1191.19 210.041 1142.77 246.011 1066.76 308.186C1085.48 349.038 1118.68 404.377 1166.37 474.201V482.502L1162.22 511.555L1158.07 507.404H1153.92L1149.77 524.006H1133.16V515.705H1129.01V524.006H1120.71C1120.71 514.24 1090.28 463.052 1029.4 370.441L1021.1 345.539L1000.35 349.689C996.771 416.258 988.063 457.762 974.229 474.201V478.352L932.725 474.201V461.75L936.875 432.697C928.574 432.697 924.424 424.396 924.424 407.795C928.981 380.126 933.538 366.291 938.096 366.291L933.945 362.141C942.246 285.969 950.547 240.314 958.848 225.178L954.697 212.727L967.148 179.523V175.373L962.998 171.223V167.072H971.299V196.125H975.449L979.6 183.674L975.449 179.523V175.373C978.216 167.072 986.517 162.922 1000.35 162.922ZM1108.26 187.824H1112.41L1095.81 204.426H1091.66L1108.26 187.824ZM967.148 208.576L962.998 233.479V250.08H967.148L971.299 212.727V208.576H967.148ZM1087.51 204.426H1091.66L1066.76 225.178H1062.61L1087.51 204.426ZM1141.46 221.027L1124.86 233.479L1120.71 237.629V241.779H1124.86L1141.46 229.328L1145.62 225.178V221.027H1141.46ZM1070.91 457.6H1075.06L1087.51 470.051H1083.36L1070.91 457.6ZM1087.51 470.051C1094.51 470.051 1101.43 483.885 1108.26 511.555V515.705H1104.11L1087.51 470.051Z" fill="white"/>
</svg>
