<svg id="visual" viewBox="0 0 960 540" width="960" height="540" xmlns="http://www.w3.org/2000/svg" xmlns:xlink="http://www.w3.org/1999/xlink" version="1.1"><path d="M0 98L26.7 97.2C53.3 96.3 106.7 94.7 160 97.3C213.3 100 266.7 107 320 106C373.3 105 426.7 96 480 95.2C533.3 94.3 586.7 101.7 640 104.5C693.3 107.3 746.7 105.7 800 106.5C853.3 107.3 906.7 110.7 933.3 112.3L960 114L960 0L933.3 0C906.7 0 853.3 0 800 0C746.7 0 693.3 0 640 0C586.7 0 533.3 0 480 0C426.7 0 373.3 0 320 0C266.7 0 213.3 0 160 0C106.7 0 53.3 0 26.7 0L0 0Z" fill="#000000"></path><path d="M0 131L26.7 131C53.3 131 106.7 131 160 134.5C213.3 138 266.7 145 320 144C373.3 143 426.7 134 480 130.5C533.3 127 586.7 129 640 129C693.3 129 746.7 127 800 129.7C853.3 132.3 906.7 139.7 933.3 143.3L960 147L960 112L933.3 110.3C906.7 108.7 853.3 105.3 800 104.5C746.7 103.7 693.3 105.3 640 102.5C586.7 99.7 533.3 92.3 480 93.2C426.7 94 373.3 103 320 104C266.7 105 213.3 98 160 95.3C106.7 92.7 53.3 94.3 26.7 95.2L0 96Z" fill="#00247e"></path><path d="M0 168L26.7 170.8C53.3 173.7 106.7 179.3 160 185.7C213.3 192 266.7 199 320 196.2C373.3 193.3 426.7 180.7 480 174.3C533.3 168 586.7 168 640 167.2C693.3 166.3 746.7 164.7 800 169.2C853.3 173.7 906.7 184.3 933.3 189.7L960 195L960 145L933.3 141.3C906.7 137.7 853.3 130.3 800 127.7C746.7 125 693.3 127 640 127C586.7 127 533.3 125 480 128.5C426.7 132 373.3 141 320 142C266.7 143 213.3 136 160 132.5C106.7 129 53.3 129 26.7 129L0 129Z" fill="#0447aa"></path><path d="M0 201L26.7 204.5C53.3 208 106.7 215 160 220.3C213.3 225.7 266.7 229.3 320 226.7C373.3 224 426.7 215 480 208.7C533.3 202.3 586.7 198.7 640 196.8C693.3 195 746.7 195 800 200.5C853.3 206 906.7 217 933.3 222.5L960 228L960 193L933.3 187.7C906.7 182.3 853.3 171.7 800 167.2C746.7 162.7 693.3 164.3 640 165.2C586.7 166 533.3 166 480 172.3C426.7 178.7 373.3 191.3 320 194.2C266.7 197 213.3 190 160 183.7C106.7 177.3 53.3 171.7 26.7 168.8L0 166Z" fill="#1569d4"></path><path d="M0 233L26.7 236.7C53.3 240.3 106.7 247.7 160 253.2C213.3 258.7 266.7 262.3 320 257.8C373.3 253.3 426.7 240.7 480 233.3C533.3 226 586.7 224 640 223C693.3 222 746.7 222 800 228.3C853.3 234.7 906.7 247.3 933.3 253.7L960 260L960 226L933.3 220.5C906.7 215 853.3 204 800 198.5C746.7 193 693.3 193 640 194.8C586.7 196.7 533.3 200.3 480 206.7C426.7 213 373.3 222 320 224.7C266.7 227.3 213.3 223.7 160 218.3C106.7 213 53.3 206 26.7 202.5L0 199Z" fill="#1c7fee"></path><path d="M0 282L26.7 289.2C53.3 296.3 106.7 310.7 160 317.8C213.3 325 266.7 325 320 317.8C373.3 310.7 426.7 296.3 480 289.2C533.3 282 586.7 282 640 282.8C693.3 283.7 746.7 285.3 800 291.7C853.3 298 906.7 309 933.3 314.5L960 320L960 258L933.3 251.7C906.7 245.3 853.3 232.7 800 226.3C746.7 220 693.3 220 640 221C586.7 222 533.3 224 480 231.3C426.7 238.7 373.3 251.3 320 255.8C266.7 260.3 213.3 256.7 160 251.2C106.7 245.7 53.3 238.3 26.7 234.7L0 231Z" fill="#1c7fee"></path><path d="M0 309L26.7 317C53.3 325 106.7 341 160 347.3C213.3 353.7 266.7 350.3 320 342.3C373.3 334.3 426.7 321.7 480 315.3C533.3 309 586.7 309 640 310.8C693.3 312.7 746.7 316.3 800 320.8C853.3 325.3 906.7 330.7 933.3 333.3L960 336L960 318L933.3 312.5C906.7 307 853.3 296 800 289.7C746.7 283.3 693.3 281.7 640 280.8C586.7 280 533.3 280 480 287.2C426.7 294.3 373.3 308.7 320 315.8C266.7 323 213.3 323 160 315.8C106.7 308.7 53.3 294.3 26.7 287.2L0 280Z" fill="#1569d4"></path><path d="M0 352L26.7 360.2C53.3 368.3 106.7 384.7 160 394.5C213.3 404.3 266.7 407.7 320 400.3C373.3 393 426.7 375 480 369.7C533.3 364.3 586.7 371.7 640 377.2C693.3 382.7 746.7 386.3 800 387.2C853.3 388 906.7 386 933.3 385L960 384L960 334L933.3 331.3C906.7 328.7 853.3 323.3 800 318.8C746.7 314.3 693.3 310.7 640 308.8C586.7 307 533.3 307 480 313.3C426.7 319.7 373.3 332.3 320 340.3C266.7 348.3 213.3 351.7 160 345.3C106.7 339 53.3 323 26.7 315L0 307Z" fill="#0447aa"></path><path d="M0 401L26.7 405.5C53.3 410 106.7 419 160 427C213.3 435 266.7 442 320 435.7C373.3 429.3 426.7 409.7 480 402.5C533.3 395.3 586.7 400.7 640 406C693.3 411.3 746.7 416.7 800 417.5C853.3 418.3 906.7 414.7 933.3 412.8L960 411L960 382L933.3 383C906.7 384 853.3 386 800 385.2C746.7 384.3 693.3 380.7 640 375.2C586.7 369.7 533.3 362.3 480 367.7C426.7 373 373.3 391 320 398.3C266.7 405.7 213.3 402.3 160 392.5C106.7 382.7 53.3 366.3 26.7 358.2L0 350Z" fill="#00247e"></path><path d="M0 541L26.7 541C53.3 541 106.7 541 160 541C213.3 541 266.7 541 320 541C373.3 541 426.7 541 480 541C533.3 541 586.7 541 640 541C693.3 541 746.7 541 800 541C853.3 541 906.7 541 933.3 541L960 541L960 409L933.3 410.8C906.7 412.7 853.3 416.3 800 415.5C746.7 414.7 693.3 409.3 640 404C586.7 398.7 533.3 393.3 480 400.5C426.7 407.7 373.3 427.3 320 433.7C266.7 440 213.3 433 160 425C106.7 417 53.3 408 26.7 403.5L0 399Z" fill="#000000"></path></svg>